<?xml version="1.0" encoding="UTF-8"?>
<!DOCTYPE svg PUBLIC "-//W3C//DTD SVG 1.1//EN" "http://www.w3.org/Graphics/SVG/1.1/DTD/svg11.dtd">
<!-- Creator: CorelDRAW -->
<svg xmlns="http://www.w3.org/2000/svg" xml:space="preserve" width="50mm" height="50mm" version="1.1" style="shape-rendering:geometricPrecision; text-rendering:geometricPrecision; image-rendering:optimizeQuality; fill-rule:evenodd; clip-rule:evenodd"
viewBox="0 0 5000 5000"
 xmlns:xlink="http://www.w3.org/1999/xlink"
 xmlns:xodm="http://www.corel.com/coreldraw/odm/2003">
 <defs>
  <style type="text/css">
   <![CDATA[
    .fil0 {fill:#373435;fill-rule:nonzero}
   ]]>
  </style>
 </defs>
 <g id="Capa_x0020_1">
  <metadata id="CorelCorpID_0Corel-Layer"/>
  <g id="_1599384729440">
   <path class="fil0" d="M4248.29 1434.99l-408.1 1428.22 -1972.98 0 -317.21 -1428.22 2698.29 0zm-2476.89 1666.2l0.25 0c0.1,0 0.25,0 0.5,0l2157.81 0c53.08,0 99.86,-35.27 114.47,-86.38l475.93 -1666.23c10.37,-35.88 3.18,-74.52 -19.26,-104.21 -22.59,-29.92 -57.75,-47.46 -95.06,-47.46l-2909.01 0 -85.09 -382.84c-12.12,-54.46 -60.51,-93.17 -116.26,-93.17l-714.09 0c-65.69,0 -118.9,53.29 -118.9,118.98 0,65.69 53.21,119.01 118.9,119.01l618.67 0c15.01,67.86 407.24,1832.16 429.68,1933.66 -126.47,55.11 -215.21,181.2 -215.21,327.69 0,196.77 160.21,357.06 357.02,357.06l2158.21 0c65.69,0 119.01,-53.36 119.01,-119.04 0,-65.8 -53.32,-119.05 -119.01,-119.05l-2158.21 0c-65.54,0 -119.01,-53.43 -119.01,-118.97 0,-65.58 53.33,-118.9 118.66,-119.05z"/>
   <path class="fil0" d="M2009.81 3815.28c65.69,0 119.01,53.43 119.01,118.98 0,65.68 -53.32,119.01 -119.01,119.01 -65.69,0 -118.9,-53.33 -118.9,-119.01 0,-65.55 53.21,-118.98 118.9,-118.98zm-357.07 118.98c0,196.95 160.15,357.1 357.07,357.1 196.95,0 357.06,-160.15 357.06,-357.1 0,-196.78 -160.11,-357.07 -357.06,-357.07 -196.92,0 -357.07,160.29 -357.07,357.07z"/>
   <path class="fil0" d="M3691.91 3815.28c65.69,0 119.01,53.43 119.01,118.98 0,65.68 -53.32,119.01 -119.01,119.01 -65.69,0 -118.9,-53.33 -118.9,-119.01 0,-65.55 53.21,-118.98 118.9,-118.98zm-357.06 118.98c0,196.95 160.14,357.1 357.06,357.1 196.92,0 357.06,-160.15 357.06,-357.1 0,-196.78 -160.14,-357.07 -357.06,-357.07 -196.92,0 -357.06,160.29 -357.06,357.07z"/>
  </g>
 </g>
</svg>
