<?xml version="1.0" encoding="UTF-8"?>
<!DOCTYPE svg PUBLIC "-//W3C//DTD SVG 1.1//EN" "http://www.w3.org/Graphics/SVG/1.1/DTD/svg11.dtd">
<!-- Creator: CorelDRAW -->
<svg xmlns="http://www.w3.org/2000/svg" xml:space="preserve" width="50mm" height="50mm" version="1.1" style="shape-rendering:geometricPrecision; text-rendering:geometricPrecision; image-rendering:optimizeQuality; fill-rule:evenodd; clip-rule:evenodd"
viewBox="0 0 5000 5000"
 xmlns:xlink="http://www.w3.org/1999/xlink"
 xmlns:xodm="http://www.corel.com/coreldraw/odm/2003">
 <defs>
  <style type="text/css">
   <![CDATA[
    .fil0 {fill:#373435;fill-rule:nonzero}
   ]]>
  </style>
 </defs>
 <g id="Capa_x0020_1">
  <metadata id="CorelCorpID_0Corel-Layer"/>
  <g id="_1599383166144">
   <path class="fil0" d="M4198.31 2665.97l-603.59 715.84c-19.15,22.64 -41.2,42.84 -65.35,59.92 -73.72,47.13 -170.08,71.05 -286.18,71.05l-895.55 0c-67.37,0 -135.49,3.95 -202.26,11.82l-222.79 25.21 -466.13 -456.16c32.29,-48.4 91.95,-126.63 178.24,-197.68 179.45,-147.69 382.99,-191.23 604.96,-129.23 115.38,32.15 237.05,48.54 361.51,48.54l588.61 0c105.87,0 133.97,92.27 133.97,146.84 0,39.82 -12.77,77.79 -34.82,104.02 -23.92,28.57 -58.18,42.98 -101.45,42.98l-512.46 0c-41.11,0 -74.41,33.54 -74.41,75 0,41.43 33.3,74.97 74.41,74.97l512.46 0c86.48,0 162.73,-34 214.86,-95.87 43.31,-51.33 67.92,-118.76 70.13,-191l484.35 -483.07c69.21,-69.87 177.28,-52.36 237.9,3.95 31.23,29.02 73.36,90.2 3.59,172.87zm-2655.1 1536.98l-760.43 -729.89 409.59 -428.6 756.02 739.39 -405.18 419.1zm2752.28 -1820.13c-56.54,-52.59 -133.51,-85.1 -211.18,-89.28 -88.23,-4.54 -170.89,27.15 -232.43,89.28l-420.52 419.46c-8.45,-14.51 -17.87,-28.34 -28.53,-41.01 -51.8,-61.86 -127.36,-95.99 -213.05,-95.99l-588.61 0c-110.97,0 -219.31,-14.51 -321.82,-43.08 -267.35,-74.54 -522.76,-20.07 -738.84,157.54 -87.63,72.23 -151.71,150.82 -192.35,208.18l-105.54 -103.34c-13.82,-13.59 -32.61,-21.26 -51.99,-21.26l-0.47 0c-20.1,0.14 -39.49,8.5 -53.41,23.11l-513.15 536.94c-13.69,14.28 -21.22,33.67 -20.76,53.64 0.46,19.98 8.69,38.9 23.1,52.72l867.81 832.99c14.38,13.79 32.84,20.64 51.3,20.64 19.39,0 38.67,-7.54 53.28,-22.61l508.38 -525.69c13.96,-14.41 21.62,-34.03 21.26,-54.1 -0.46,-19.75 -8.59,-38.9 -22.64,-52.59l-44.33 -43.31 101.33 -11.48c61.18,-7.21 123.54,-10.8 185.31,-10.8l895.55 0c145.59,0 269.23,-32.18 367.43,-95.43 0.82,-0.46 1.74,-1.06 2.57,-1.65 35.18,-24.61 67.1,-53.87 94.84,-86.81l603.58 -715.74c103.34,-122.49 96.95,-275.38 -16.12,-380.33z"/>
   <path class="fil0" d="M1163.64 1688.74c0,-120.51 84.87,-220.92 200.61,-241.26 58.15,29.72 123.74,46.57 193.28,46.57 69.44,0 135.15,-16.85 193.21,-46.57 115.61,20.34 200.48,120.75 200.48,241.26l0 340.74c0,17.41 -14.05,31.59 -31.23,31.59l-724.89 0c-17.41,0 -31.46,-14.18 -31.46,-31.59l0 -340.74zm393.89 -909.84c154.54,0 280.28,126.67 280.28,282.56 0,155.82 -125.74,282.59 -280.28,282.59 -154.64,0 -280.35,-126.77 -280.35,-282.59 0,-155.89 125.71,-282.56 280.35,-282.56zm743.02 668.58c58.18,29.72 123.77,46.57 193.3,46.57 69.54,0 135.13,-16.85 193.31,-46.57 115.51,20.34 200.61,120.75 200.61,241.26l0 340.74c0,17.41 -14.18,31.59 -31.46,31.59l-724.92 0c-17.17,0 -31.33,-14.18 -31.33,-31.59l0 -340.74c0,-120.51 84.98,-220.92 200.49,-241.26zm193.3 -668.58c154.64,0 280.39,126.67 280.39,282.56 0,155.82 -125.75,282.59 -280.39,282.59 -154.64,0 -280.38,-126.77 -280.38,-282.59 0,-155.89 125.74,-282.56 280.38,-282.56zm743.12 668.58c58.18,29.72 123.87,46.57 193.21,46.57 69.54,0 135.12,-16.85 193.27,-46.57 115.75,20.34 200.62,120.75 200.62,241.26l0 340.74c0,17.41 -14.05,31.59 -31.33,31.59l-725.02 0c-17.18,0 -31.23,-14.18 -31.23,-31.59l0 -340.74c0,-120.51 84.87,-220.92 200.48,-241.26zm193.31 -668.58c154.54,0 280.25,126.67 280.25,282.56 0,155.82 -125.71,282.59 -280.25,282.59 -154.64,0 -280.39,-126.77 -280.39,-282.59 0,-155.89 125.75,-282.56 280.39,-282.56zm-2235.18 1432.14l724.89 0c39.36,0 75.92,-12.87 105.63,-34.69 29.75,21.82 66.32,34.69 105.77,34.69l724.92 0c39.46,0 76.02,-12.87 105.77,-34.69 29.72,21.82 66.28,34.69 105.64,34.69l725.02 0c99.38,0 180.04,-81.39 180.04,-181.56l0 -340.74c0,-153.03 -84.84,-285.95 -212.1,-351.54 61.54,-75 98.8,-171.02 98.8,-275.74 0,-238.56 -192.59,-432.56 -429.3,-432.56 -236.62,0 -429.1,194 -429.1,432.56 0,104.72 37.02,200.84 98.79,275.74 -55.02,28.34 -102.05,69.31 -137.79,119 -35.77,-49.69 -82.9,-90.66 -137.82,-119 61.64,-74.9 98.69,-171.02 98.69,-275.74 0,-238.56 -192.48,-432.56 -429.1,-432.56 -236.61,0 -429.1,194 -429.1,432.56 0,104.72 37.06,200.84 98.7,275.74 -54.93,28.34 -102.05,69.31 -137.83,119.1 -35.73,-49.79 -82.76,-90.76 -137.79,-119.1 61.64,-74.9 98.8,-171.02 98.8,-275.74 0,-238.56 -192.49,-432.56 -429.2,-432.56 -236.62,0 -429.2,194 -429.2,432.56 0,104.72 37.25,200.84 98.79,275.74 -127.26,65.59 -212.1,198.51 -212.1,351.54l0 340.74c0,100.17 80.8,181.56 180.18,181.56z"/>
  </g>
 </g>
</svg>
