<?xml version="1.0" encoding="UTF-8"?>
    <!DOCTYPE svg PUBLIC "-//W3C//DTD SVG 1.1//EN" "http://www.w3.org/Graphics/SVG/1.1/DTD/svg11.dtd">
    <!-- Creator: CorelDRAW -->
    <svg xmlns="http://www.w3.org/2000/svg" xml:space="preserve" width="50mm" height="50mm" version="1.1" style="shape-rendering:geometricPrecision; text-rendering:geometricPrecision; image-rendering:optimizeQuality; fill-rule:evenodd; clip-rule:evenodd"
    viewBox="0 0 5000 5000"
    xmlns:xlink="http://www.w3.org/1999/xlink"
    xmlns:xodm="http://www.corel.com/coreldraw/odm/2003">
    <defs>
    <style type="text/css">
    <![CDATA[
        .fil0 {fill:#FEFEFE;fill-rule:nonzero}
    ]]>
    </style>
    </defs>
    <g id="Capa_x0020_1">
    <metadata id="CorelCorpID_0Corel-Layer"/>
    <g id="_2402639118288">
    <g id="_1599512612192">
        <path class="fil0" d="M3839.07 4167.78c0,43.67 -35.45,79.12 -79.15,79.12l-2531.98 0c-43.71,0 -79.12,-35.45 -79.12,-79.12l0 -3323.3c0,-43.57 35.41,-79.12 79.12,-79.12l2531.98 0c43.7,0 79.15,35.55 79.15,79.12l0 3323.3zm-79.15 -3560.69l-2531.98 0c-130.98,0 -237.39,106.52 -237.39,237.39l0 3323.3c0,130.83 106.41,237.39 237.39,237.39l2531.98 0c130.87,0 237.28,-106.56 237.28,-237.39l0 -3323.3c0,-130.87 -106.41,-237.39 -237.28,-237.39z"/>
        <path class="fil0" d="M3422.17 1649.13l-1856.62 0 0 -428.48 1856.62 0 0 428.48zm142.8 -571.18l-2142.26 0 0 714.16 2142.26 0 0 -714.16z"/>
        <path class="fil0" d="M3136.63 2077.65l285.54 0 0 285.64 -285.54 0 0 -285.64zm-142.84 -71.35l0 428.48c0,39.48 31.84,71.35 71.49,71.35l428.34 0c39.51,0 71.35,-31.87 71.35,-71.35l0 -428.48c0,-39.54 -31.84,-71.49 -71.35,-71.49l-428.34 0c-39.65,0 -71.49,31.95 -71.49,71.49z"/>
        <path class="fil0" d="M1565.55 2077.65l285.54 0 0 285.64 -285.54 0 0 -285.64zm-142.84 -71.35l0 428.48c0,39.48 31.98,71.35 71.49,71.35l428.48 0c39.37,0 71.35,-31.87 71.35,-71.35l0 -428.48c0,-39.54 -31.98,-71.49 -71.35,-71.49l-428.48 0c-39.51,0 -71.49,31.95 -71.49,71.49z"/>
        <path class="fil0" d="M2351.02 2077.65l285.65 0 0 285.64 -285.65 0 0 -285.64zm-142.84 -71.35l0 428.48c0,39.48 31.99,71.35 71.49,71.35l428.49 0c39.36,0 71.35,-31.87 71.35,-71.35l0 -428.48c0,-39.54 -31.99,-71.49 -71.35,-71.49l-428.49 0c-39.5,0 -71.49,31.95 -71.49,71.49z"/>
        <path class="fil0" d="M3136.63 2791.77l285.54 0 0 285.61 -285.54 0 0 -285.61zm-142.84 -71.49l0 428.45c0,39.5 31.84,71.49 71.49,71.49l428.34 0c39.51,0 71.35,-31.99 71.35,-71.49l0 -428.45c0,-39.37 -31.84,-71.35 -71.35,-71.35l-428.34 0c-39.65,0 -71.49,31.98 -71.49,71.35z"/>
        <path class="fil0" d="M1565.55 2791.77l285.54 0 0 285.61 -285.54 0 0 -285.61zm-142.84 -71.49l0 428.45c0,39.5 31.98,71.49 71.49,71.49l428.48 0c39.37,0 71.35,-31.99 71.35,-71.49l0 -428.45c0,-39.37 -31.98,-71.35 -71.35,-71.35l-428.48 0c-39.51,0 -71.49,31.98 -71.49,71.35z"/>
        <path class="fil0" d="M2351.02 2791.77l285.65 0 0 285.61 -285.65 0 0 -285.61zm-142.84 -71.49l0 428.45c0,39.5 31.99,71.49 71.49,71.49l428.49 0c39.36,0 71.35,-31.99 71.35,-71.49l0 -428.45c0,-39.37 -31.99,-71.35 -71.35,-71.35l-428.49 0c-39.5,0 -71.49,31.98 -71.49,71.35z"/>
        <path class="fil0" d="M3136.63 3505.86l285.54 0 0 285.68 -285.54 0 0 -285.68zm-142.84 -71.46l0 428.49c0,39.5 31.84,71.49 71.49,71.49l428.34 0c39.51,0 71.35,-31.99 71.35,-71.49l0 -428.49c0,-39.4 -31.84,-71.35 -71.35,-71.35l-428.34 0c-39.65,0 -71.49,31.95 -71.49,71.35z"/>
        <path class="fil0" d="M1565.55 3505.86l285.54 0 0 285.68 -285.54 0 0 -285.68zm-142.84 -71.46l0 428.49c0,39.5 31.98,71.49 71.49,71.49l428.48 0c39.37,0 71.35,-31.99 71.35,-71.49l0 -428.49c0,-39.4 -31.98,-71.35 -71.35,-71.35l-428.48 0c-39.51,0 -71.49,31.95 -71.49,71.35z"/>
        <path class="fil0" d="M2351.02 3505.86l285.65 0 0 285.68 -285.65 0 0 -285.68zm-142.84 -71.46l0 428.49c0,39.5 31.99,71.49 71.49,71.49l428.49 0c39.36,0 71.35,-31.99 71.35,-71.49l0 -428.49c0,-39.4 -31.99,-71.35 -71.35,-71.35l-428.49 0c-39.5,0 -71.49,31.95 -71.49,71.35z"/>
    </g>
    </g>
    </g>
    </svg>
