<?xml version="1.0" encoding="UTF-8"?>
<!DOCTYPE svg PUBLIC "-//W3C//DTD SVG 1.1//EN" "http://www.w3.org/Graphics/SVG/1.1/DTD/svg11.dtd">
<!-- Creator: CorelDRAW -->
<svg xmlns="http://www.w3.org/2000/svg" xml:space="preserve" width="50mm" height="50mm" version="1.1" style="shape-rendering:geometricPrecision; text-rendering:geometricPrecision; image-rendering:optimizeQuality; fill-rule:evenodd; clip-rule:evenodd"
viewBox="0 0 5000 5000"
 xmlns:xlink="http://www.w3.org/1999/xlink"
 xmlns:xodm="http://www.corel.com/coreldraw/odm/2003">
 <defs>
  <style type="text/css">
   <![CDATA[
    .fil0 {fill:#FEFEFE;fill-rule:nonzero}
   ]]>
  </style>
 </defs>
 <g id="Capa_x0020_1">
  <metadata id="CorelCorpID_0Corel-Layer"/>
  <g id="_2402643243568">
   <g id="_1599556244288">
    <path class="fil0" d="M623.32 1861.16l343.75 0c30.33,0 56.52,-21.07 63.09,-50.76 21.14,-96.49 59.5,-188.61 112.86,-271.74 16.42,-25.54 12.83,-59.04 -8.59,-80.46l-243.42 -243.35 182.45 -182.6 243.39 243.49c21.45,21.46 55.03,25.08 80.5,8.63 83.2,-53.5 175.17,-91.72 271.84,-112.9 29.55,-6.53 50.73,-32.68 50.73,-63.05l0 -343.85 258.02 0 0 343.85c0,30.37 21.06,56.52 50.66,63.05 96.48,21.18 188.64,59.4 271.8,112.9 25.58,16.45 59.08,12.83 80.5,-8.63l243.34 -243.49 182.35 182.6 -243.38 243.24c-21.39,21.53 -25.05,55.03 -8.64,80.57 53.5,83.13 91.87,175.25 112.94,271.84 6.5,29.59 32.68,50.66 62.91,50.66l344.03 0 0 258.02 -344.03 0c-30.23,0 -56.41,21.21 -62.91,50.73 -21.07,96.67 -59.44,188.64 -112.94,271.73 -16.41,25.58 -12.68,59.05 8.64,80.43l243.52 243.38 -182.49 182.53 -243.34 -243.39c-21.42,-21.46 -54.92,-25.11 -80.5,-8.77 -83.09,53.64 -175.17,91.87 -271.8,113 -29.6,6.5 -50.66,32.72 -50.66,63.02l0 343.82 -258.02 0 0 -343.82c0,-30.3 -21.18,-56.52 -50.73,-63.02 -96.77,-21.13 -188.64,-59.36 -271.84,-113 -25.47,-16.34 -59.05,-12.69 -80.5,8.77l-243.39 243.39 -182.31 -182.53 243.28 -243.38c21.52,-21.38 25.01,-54.85 8.59,-80.43 -53.36,-83.2 -91.72,-175.21 -112.86,-271.8 -6.57,-29.59 -32.76,-50.66 -63.09,-50.66l-343.75 0 0 -258.02zm-64.51 386.98l357.92 0c21.13,76.31 51.61,149.74 90.73,218.58l-253.16 253.15c-12.18,12.04 -18.97,28.42 -18.97,45.58 0,17.19 6.79,33.64 18.97,45.61l273.73 273.76c25.01,25.19 65.86,25.19 91.08,0l253.3 -253.3c68.81,39.12 142.1,69.67 218.55,90.88l0 357.77c0,35.63 28.67,64.45 64.44,64.45l386.98 0c35.6,0 64.51,-28.82 64.51,-64.45l0 -357.77c76.21,-21.21 149.67,-51.76 218.45,-90.88l253.28 253.3c25.72,24.16 65.69,24.16 91.27,0l273.72 -273.76c12.01,-11.97 18.76,-28.42 18.76,-45.61 0,-17.16 -6.75,-33.54 -18.76,-45.58l-253.44 -253.15c39.26,-68.84 69.7,-142.27 90.84,-218.58l357.85 0c35.56,0 64.51,-28.85 64.51,-64.52l0 -387.04c0,-35.56 -28.95,-64.38 -64.51,-64.38l-357.85 0c-21.14,-76.38 -51.58,-149.77 -90.84,-218.62l253.26 -253.12c12.05,-12.18 18.94,-28.59 18.94,-45.61 0,-17.16 -6.89,-33.61 -18.94,-45.65l-273.54 -273.72c-25.19,-25.19 -66.08,-25.19 -91.27,0l-253.28 253.29c-68.78,-39.11 -142.24,-69.66 -218.45,-90.87l0 -357.78c0,-35.59 -28.91,-64.51 -64.51,-64.51l-386.98 0c-35.77,0 -64.44,28.92 -64.44,64.51l0 357.78c-76.45,21.21 -149.74,51.76 -218.55,90.87l-253.3 -253.29c-25.54,-24.16 -65.54,-24.16 -91.08,0l-273.87 273.72c-12.04,12.04 -18.83,28.49 -18.83,45.65 0,17.02 6.79,33.43 18.83,45.61l253.3 253.12c-39.12,68.85 -69.6,142.24 -90.73,218.62l-357.92 0c-35.6,0 -64.44,28.82 -64.44,64.38l0 387.04c0,35.67 28.84,64.52 64.44,64.52z"/>
    <path class="fil0" d="M1848.95 1603.14c213.64,0 386.97,173.33 386.97,386.98 0,213.68 -173.33,387.01 -386.97,387.01 -213.87,0 -387.16,-173.33 -387.16,-387.01 0.25,-213.65 173.44,-386.77 387.16,-386.98zm0 903.05c284.8,0 515.93,-231.05 515.93,-516.07 0,-284.99 -231.13,-515.94 -515.93,-515.94 -285.02,0 -516.15,230.95 -516.15,515.94 0.39,284.84 231.27,515.72 516.15,516.07z"/>
    <path class="fil0" d="M4364.37 4054.2c0,106.86 -86.61,193.47 -193.54,193.47l-3354.07 0c-106.79,0 -193.47,-86.61 -193.47,-193.47l0 -129c0,-106.89 86.68,-193.47 193.47,-193.47l3354.07 0c106.93,0 193.54,86.58 193.54,193.47l0 129zm-1354.54 -902.98l451.56 0 0 451.52 -451.56 0 0 -451.52zm386.98 -580.51l451.56 0 0 451.51 -451.56 0 0 -451.51zm645.1 1031.93l-451.6 0 0 -451.57 451.6 0 0 451.57zm128.92 0l0 -516.01c0,-35.6 -28.81,-64.51 -64.51,-64.51l-128.96 0 0 -515.96c0,-35.56 -28.85,-64.52 -64.58,-64.52l-580.34 0c-35.74,0 -64.59,28.96 -64.59,64.52l0 515.96 -322.46 0c-35.56,0 -64.52,28.91 -64.52,64.51l0 516.01 -2064.11 0c-177.95,0.24 -322.18,144.48 -322.46,322.56l0 129c0.28,178.09 144.51,322.32 322.46,322.46l3354.07 0c178.09,-0.14 322.32,-144.37 322.61,-322.46l0 -129c-0.29,-178.08 -144.52,-322.32 -322.61,-322.56z"/>
    <path class="fil0" d="M2493.9 4047.7c-32.11,0 -58.01,-25.9 -58.01,-58.02 0,-32.08 25.9,-58.12 58.01,-58.12 32.08,0 58.04,26.04 58.04,58.12 0,32.12 -25.96,58.02 -58.04,58.02zm0 -232.2c-96.23,0 -174.17,78.05 -174.17,174.18 0,96.13 77.94,174.18 174.17,174.18 96.27,0 174.21,-78.05 174.21,-174.18 0,-96.13 -77.94,-174.18 -174.21,-174.18z"/>
    <path class="fil0" d="M1848.95 4047.7c-32.12,0 -58.16,-25.9 -58.16,-58.02 0,-32.08 26.04,-58.12 58.16,-58.12 32.07,0 58.01,26.04 58.01,58.12 0,32.12 -25.94,58.02 -58.01,58.02zm0 -232.2c-96.28,0 -174.22,78.05 -174.22,174.18 0,96.13 77.94,174.18 174.22,174.18 96.09,0 174.14,-78.05 174.14,-174.18 0,-96.13 -78.05,-174.18 -174.14,-174.18z"/>
    <path class="fil0" d="M3138.89 4047.7c-32.11,0 -58.01,-25.9 -58.01,-58.02 0,-32.08 25.9,-58.12 58.01,-58.12 32.05,0 58.02,26.04 58.02,58.12 0,32.12 -25.97,58.02 -58.02,58.02zm0 -232.2c-96.23,0 -174.21,78.05 -174.21,174.18 0,96.13 77.98,174.18 174.21,174.18 96.24,0 174.22,-78.05 174.22,-174.18 0,-96.13 -77.98,-174.18 -174.22,-174.18z"/>
    <path class="fil0" d="M1203.81 4047.7c-32.12,0 -58.02,-25.9 -58.02,-58.02 0,-32.08 25.9,-58.12 58.02,-58.12 32.08,0 58.12,26.04 58.12,58.12 0,32.12 -26.04,58.02 -58.12,58.02zm0 -232.2c-96.1,0 -174.22,78.05 -174.22,174.18 0,96.13 78.12,174.18 174.22,174.18 96.27,0 174.21,-78.05 174.21,-174.18 0,-96.13 -77.94,-174.18 -174.21,-174.18z"/>
    <path class="fil0" d="M3783.85 4047.7c-32.07,0 -58.01,-25.9 -58.01,-58.02 0,-32.08 25.94,-58.12 58.01,-58.12 32.08,0 58.16,26.04 58.16,58.12 0,32.12 -26.08,58.02 -58.16,58.02zm0 -232.2c-96.23,0 -174.21,78.05 -174.21,174.18 0,96.13 77.98,174.18 174.21,174.18 96.28,0 174.22,-78.05 174.22,-174.18 0,-96.13 -77.94,-174.18 -174.22,-174.18z"/>
   </g>
  </g>
 </g>
</svg>
