<?xml version="1.0" encoding="UTF-8"?>
<!DOCTYPE svg PUBLIC "-//W3C//DTD SVG 1.1//EN" "http://www.w3.org/Graphics/SVG/1.1/DTD/svg11.dtd">
<!-- Creator: CorelDRAW -->
<svg xmlns="http://www.w3.org/2000/svg" xml:space="preserve" width="50mm" height="50mm" version="1.1" style="shape-rendering:geometricPrecision; text-rendering:geometricPrecision; image-rendering:optimizeQuality; fill-rule:evenodd; clip-rule:evenodd"
viewBox="0 0 5000 5000"
 xmlns:xlink="http://www.w3.org/1999/xlink"
 xmlns:xodm="http://www.corel.com/coreldraw/odm/2003">
 <defs>
  <style type="text/css">
   <![CDATA[
    .fil0 {fill:#FEFEFE;fill-rule:nonzero}
   ]]>
  </style>
 </defs>
 <g id="Capa_x0020_1">
  <metadata id="CorelCorpID_0Corel-Layer"/>
  <g id="_2402650639616">
   <g id="_1563523142512">
    <path class="fil0" d="M2606.11 3007.74l-224.62 0c-81.73,0 -147.84,-66.25 -147.84,-147.84 0,-81.72 66.11,-147.9 147.84,-147.9l395.36 0c53.88,0 98.14,-44.15 98.14,-98.03 0,-53.95 -44.26,-98.03 -98.14,-98.03l-185.36 0 0 -136.45c0,-53.99 -44.15,-98.1 -98.14,-98.1 -53.84,0 -97.99,44.11 -97.99,98.1l0 136.45 -13.87 0c-189.56,0 -343.93,154.38 -343.93,343.96 0,189.42 154.37,343.97 343.93,343.97l224.62 0c81.73,0 147.94,66.03 147.94,147.76 0,81.73 -66.21,148.01 -147.94,148.01l-402.7 0c-53.99,0 -98.14,44.12 -98.14,97.96 0,53.84 44.15,97.99 98.14,97.99l192.84 0 0 139.75c0,53.95 44.12,98.04 98,98.04 53.84,0 98.1,-44.09 98.1,-98.04l0 -139.75 16.26 0 2.4 0c187.93,-2.39 339.16,-155.98 339.16,-343.96 0,-189.52 -154.51,-343.89 -344.06,-343.89z"/>
    <path class="fil0" d="M3421.05 4274.84l-1854.52 0c-311.25,0 -564.51,-253.23 -564.51,-564.52 0,-523.65 191.95,-1020.41 569.45,-1476.27 238.6,-288.44 481.14,-467.27 554.68,-519.61l733.64 0c74.4,51.45 316.19,231.17 554.69,519.61 378.24,455.86 569.59,951.73 569.59,1476.27 1.64,311.29 -251.62,564.52 -563.02,564.52zm-1699.39 -3401.88c94.85,-81.73 185.55,-117.66 294.12,-117.66 116.05,0 246.83,39.19 420.76,103.79 35.93,13.12 74.4,19.66 113.62,19.66 95.6,0 187.05,-37.68 274.45,-74.36 84.13,-35.25 164.21,-68.68 241.9,-68.68 37.57,0 90.7,6.62 157.66,53.91l-392.12 728.69 -682.95 0 -427.44 -645.35zm2265.55 1912.55c-102.93,-236.89 -245.07,-466.55 -424.8,-681.31 -217.44,-261.48 -433.73,-436.27 -544.1,-517.28l416.62 -772.73c20.41,-38.47 13.97,-85.74 -17.92,-116.02 -107.82,-105.46 -222.23,-156.91 -349.75,-156.91 -116.66,0 -223.73,44.12 -316.82,83.37 -73.51,30.28 -143.01,59.64 -199.39,59.64 -17.16,0 -31.89,-2.47 -46.65,-8.16 -194.49,-71.14 -343.93,-115.33 -488.62,-115.33 -182.86,0 -338.88,73.54 -491.76,230.45 -31.89,32.64 -36.68,84.13 -11.47,122.59l449.5 678.92c-111.22,82.52 -323.62,255.66 -536.77,511.46 -178.97,214.76 -321.98,444.42 -424.91,681.31 -129.13,298.23 -194.34,609.52 -194.34,924.81 0,419.15 341.39,760.68 760.5,760.68l1854.52 0c419.08,0 760.65,-341.53 760.65,-760.68 0,-315.29 -65.35,-626.58 -194.49,-924.81z"/>
   </g>
  </g>
 </g>
</svg>
