<?xml version="1.0" encoding="UTF-8"?>
<!DOCTYPE svg PUBLIC "-//W3C//DTD SVG 1.1//EN" "http://www.w3.org/Graphics/SVG/1.1/DTD/svg11.dtd">
<!-- Creator: CorelDRAW -->
<svg xmlns="http://www.w3.org/2000/svg" xml:space="preserve" width="50mm" height="50mm" version="1.1" style="shape-rendering:geometricPrecision; text-rendering:geometricPrecision; image-rendering:optimizeQuality; fill-rule:evenodd; clip-rule:evenodd"
viewBox="0 0 5000 5000"
 xmlns:xlink="http://www.w3.org/1999/xlink"
 xmlns:xodm="http://www.corel.com/coreldraw/odm/2003">
 <defs>
  <style type="text/css">
   <![CDATA[
    .fil0 {fill:#373435;fill-rule:nonzero}
   ]]>
  </style>
 </defs>
 <g id="Capa_x0020_1">
  <metadata id="CorelCorpID_0Corel-Layer"/>
  <g id="_1563512245904">
   <g>
    <path class="fil0" d="M2037.64 1940.89l-271.05 0c9.66,22.38 112.92,257.99 135.4,309.64l135.65 -309.64zm-298.41 -1243.95l323.82 0 0 -121.35 -323.82 0 0 121.35zm1031.15 748.51l0 501.5 502.07 0c-167.7,-167.47 -334.5,-334.15 -502.07,-501.5zm-1030.22 396.13l322.77 0 0 -1045.21 -322.77 0 0 1045.21zm911.33 2126.15c-4.59,-15.97 -7.52,-28.34 -11.7,-40.49 -9.79,-28.56 -2.01,-50.5 21.62,-69.63 29.33,-23.85 55.66,-51.74 85.79,-74.57 29.27,-22.16 46.8,-46.45 37.02,-84.8 -2.27,-8.77 -0.45,-19.01 1.11,-28.22 2.71,-14.41 -2.58,-24.07 -13.39,-33.32 -38.89,-33.5 -77.15,-67.9 -116.05,-101.67 -16.77,-14.72 -24.87,-32.39 -19,-54.19 20.47,-76.93 50.15,-149.94 91.31,-218.2 10.46,-17.44 26.56,-24.87 46,-23.85 44.67,2.36 89.43,3.83 133.75,8.99 29.01,3.38 52.51,1.02 70.04,-25.5 6.98,-10.59 17.22,-19.58 27.45,-27.01 17.66,-12.5 18.56,-28.02 11.35,-46.8l-1282.82 0c7.88,9.02 13.04,15.21 18.43,21.04 81.55,89.53 163.2,179.05 244.76,268.7 156.21,171.62 312.43,343.36 468.97,514.89 5.42,6.09 13.62,13.71 20.73,13.93 53.97,1.15 107.95,0.7 164.63,0.7zm-1796.84 -949.94l0 0c0,27 -21.81,48.94 -48.81,48.94l-23.95 0 0 284.99 24.42 0c26.66,0 48.24,21.71 48.24,48.36 0,26.65 -21.58,48.36 -48.24,48.36l-23.84 0 0 284.67 23.14 0c27.01,0 48.81,21.81 48.81,48.69 0,27 -21.8,48.81 -48.81,48.81l-23.94 0 0 136.55 1565.13 0 -1564.24 -1718.01 0 339 23.75 0c26.75,0 48.46,21.71 48.46,48.59 0,26.78 -21.71,48.59 -48.46,48.59l-24.42 0 0 283.52 23.95 0c27,0 48.81,21.93 48.81,48.94zm2060.82 1034.27l0 -0.45c15.4,-0.67 31.15,-0.67 46.68,-2.23 22.82,-2.36 39.24,6.19 54.64,23.5 24.77,27.67 51.3,53.97 79.07,78.62 17.34,15.4 25.54,31.94 23.85,54.77 -3.61,49.38 -5.97,98.74 -9.89,148.03 -1.11,13.04 2.94,20.11 14.29,25.18 32.16,14.16 64.2,28.57 96.15,43.42 11.61,5.39 19.22,3.03 27.32,-7.33 29.59,-37.11 60.29,-73.1 90,-110.09 13.71,-17.12 29.81,-24.99 52.42,-24.07 47.21,1.69 94.46,2.24 141.71,0.9 23.05,-0.67 40.59,5.29 55.09,23.17 30.26,37.34 61.98,73.56 91.66,111.34 9.47,12.05 18.24,14.41 30.96,8.89 35.42,-15.21 70.39,-30.7 106.04,-45.34 12.94,-5.38 15.75,-13.61 14.73,-26.87 -3.92,-48.49 -6.41,-97.3 -10.11,-145.89 -1.69,-20.92 3.92,-37.65 19.67,-52.51 29.59,-27.77 58.15,-56.59 86.15,-85.92 12.49,-13.07 25.88,-20.82 44.44,-19.7 51.39,3.38 102.78,5.51 154.08,9.24 13.62,0.89 21.36,-2.93 26.43,-15.43 14.28,-35.77 28.79,-71.41 43.97,-106.83 5.42,-12.5 3.28,-20.25 -7.53,-29.37 -37.11,-31.5 -72.75,-64.78 -109.99,-96.15 -18.46,-15.62 -23.72,-34.08 -22.6,-57.48 1.56,-35.65 2.01,-71.64 0,-107.29 -1.47,-25.88 4.94,-45.56 25.18,-62.55 36.89,-30.7 72.22,-63.41 108.88,-94.46 9.34,-7.88 11.57,-15.08 6.98,-25.99 -15.53,-36.66 -30.96,-73.32 -45.78,-110.34 -4.94,-12.02 -12.28,-15.17 -24.96,-14.15 -48.59,3.69 -97.4,5.51 -145.99,9.34 -23.85,1.91 -40.97,-6.19 -56.81,-23.98 -24.87,-27.54 -51.3,-53.75 -78.72,-78.71 -17.66,-15.98 -25.66,-33.32 -23.53,-57.04 4.18,-47.92 6.32,-95.93 10.24,-143.85 1.02,-12.37 -1.21,-20.56 -13.36,-25.54 -37.02,-14.95 -73.81,-30.12 -110.47,-45.65 -11.7,-4.94 -19.23,-2.36 -27.67,7.43 -32.94,38.57 -67.15,76.13 -100.65,114.26 -12.5,14.51 -27.68,19.58 -46.78,19.13 -40.39,-1.02 -80.97,-1.02 -121.59,-0.13 -20.25,0.45 -36.67,-4.94 -50.15,-20.69 -33.32,-38.35 -67.62,-75.91 -100.46,-114.61 -7.75,-9.09 -14.16,-10.01 -24.07,-5.84 -36.76,15.53 -73.55,30.7 -110.66,45.43 -12.02,4.85 -15.18,12.06 -14.16,24.87 3.8,51.97 7.75,104.03 8.32,156.09 0.1,14.06 -9.11,30.83 -19.12,41.86 -26.66,29.46 -56.82,55.77 -84.01,85.03 -14.64,15.75 -29.81,23.59 -51.43,22.03 -48.59,-3.6 -97.4,-5.61 -145.98,-9.34 -14.51,-1.11 -23.85,1.91 -29.56,16.64 -13.74,35.23 -28.34,70.21 -43.55,104.83 -5.96,13.74 -1.91,21.93 8.77,31.15 38.13,32.65 75.14,66.25 112.83,99.34 13.93,12.15 18.65,26.97 18.33,45.08 -0.8,41.29 -1.12,82.45 -0.13,123.73 0.58,20.7 -5.51,36.22 -21.23,49.84 -37.46,32.13 -73.9,65.67 -111.14,98.06 -9.34,7.97 -13.39,15.63 -8.1,27.9 15.98,36.54 31.28,73.33 46.14,110.31 4.27,10.46 10.55,13.84 21.8,12.94 34.31,-2.58 68.83,-4.4 103.36,-6.53zm-938.69 -1728.65l1023.94 0c13.84,0 24.87,11.22 24.87,24.96l0 47.22c0,13.61 -10.93,24.64 -24.74,24.64l-0.13 0 -1072.97 0c-54.55,0 -59.17,-3.47 -80.63,-52.64 -61.75,-141.26 -123.51,-282.53 -186.38,-423.22 -12.5,-27.9 -19.45,-55.45 -18.46,-86.05 1.47,-41.83 0.35,-83.69 0.35,-125.52 0,-115.16 0.13,-230.34 0.13,-345.5 0,-5.07 -1.15,-10.14 -1.59,-15.75l-313.02 0c-0.32,7.97 -0.76,14.51 -0.76,21.14 -0.13,49.38 0,98.86 0,148.34 0,379.27 0.09,758.62 -0.45,1137.89 -0.13,17.76 5.39,30.35 16.87,42.94 63.41,68.61 126.18,137.79 189.05,206.98 39.82,43.96 79.29,88.15 116.53,129.66 9.34,-3.03 15.53,-6.76 21.71,-6.85 54.07,-0.9 108.08,-1.6 162.18,-1.6 374.52,-0.09 749.06,0 1123.57,0l55.67 0c-0.89,-16.42 -1.34,-30.48 -2.46,-44.41 -1.91,-24.64 9.35,-41.29 30.13,-52.99 63.45,-35.64 129.7,-63.54 199.55,-84 30.22,-8.9 52.51,-2.36 71.51,21.93 10.01,12.72 21.84,24.2 34.88,38.58l0 -883.12 -23.4 0c-197.16,0 -394.22,0 -591.37,0 -41.29,0 -59.05,-18.21 -59.05,-59.4 0,-199.16 0.1,-398.36 0,-597.43 0,-5.86 -1.11,-11.6 -1.69,-17.56l-509.27 0c0,8.44 -0.1,15.65 0,22.95 0,161.29 0.12,322.45 -0.32,483.74 0,13.17 -1.47,27.55 -6.67,39.47 -42.4,98.1 -85.92,195.72 -128.86,293.56 -15.97,36.32 -31.72,72.76 -48.72,112.04zm-746.92 265.19l0 -20.12c0,-413.12 -0.09,-826.34 -0.09,-1239.46 0,-36.22 18.2,-55.31 54.54,-55.44 111.11,-0.32 222.12,-0.23 333.23,-0.23l25.09 0 0 -23.27c0,-173.31 -0.09,-346.65 0.13,-519.96 0,-66.91 0.76,-133.74 1.69,-200.53 0.45,-34.43 18.43,-51.74 53.53,-51.74 136.07,-0.23 272.27,-0.23 408.37,0 36.44,0 54.9,18.68 54.9,55.21 0.1,236.98 0.1,474.08 0,711.16l0 27.57c6.41,0.67 11.57,1.69 16.74,1.69 176.69,0 353.63,0.23 530.41,-0.44 22.51,0 39.38,6.95 55.57,23.05 217.98,218.74 436.4,437.06 655.04,655.04 18.11,17.98 26.08,37.2 25.98,62.96 -0.67,325.16 -0.44,650.32 -0.44,975.35l0 24.65c23.49,0 45.08,0.99 66.47,-0.48 6.73,-0.54 14.38,-6.41 19.22,-11.89 33.96,-37.68 67.69,-75.72 100.65,-114.3 17.89,-21.01 38.14,-27.19 65.01,-19.67 70.65,20.02 137.79,48.02 201.78,83.92 22.38,12.46 33.41,29.68 31.5,56.01 -3.83,52.64 -6.86,105.37 -9.12,158.13 -0.35,8.1 4.27,17.76 9.66,24.17 11.38,13.39 26.43,23.85 36.79,37.78 14.29,19.13 31.5,23.18 54.2,21.04 47.82,-4.72 95.84,-7.08 143.85,-10.1 20.72,-1.25 36.79,7.07 47.6,25.05 39.57,65.94 68.16,136.43 88.95,210.33 6.98,24.29 1.59,44.89 -18.43,61.97 -38.13,32.52 -75.02,66.35 -113.27,98.74 -11.26,9.57 -17,18.81 -15.08,34.31 2.13,15.97 2.93,32.74 0.22,48.58 -3.92,22.96 4.53,37.02 22.16,51.21 36.66,29.9 70.97,62.61 107.09,93.44 17.88,15.4 23.94,34.31 18.11,56.37 -20.38,76.67 -50.85,149.33 -91.79,217.4 -9.88,16.51 -27.99,23.94 -49.03,22.38 -52.64,-4.05 -105.28,-7.56 -157.91,-9.92 -8.55,-0.32 -18.43,5.3 -25.76,10.81 -9.12,6.76 -14.83,18.46 -24.3,24.3 -32.26,20.11 -36.22,49.03 -32.49,83.68 4.72,42.95 5.27,86.37 8.2,129.44 1.46,21.27 -9.79,35.33 -25.63,44.99 -66.03,40.39 -135.31,73.01 -212.02,89.3 -27.77,5.87 -47.12,-2.23 -63.89,-23.15 -30.8,-37.81 -62.2,-75.01 -92.68,-113.05 -8.1,-9.88 -15.75,-13.93 -29.11,-13.04 -29.04,2.01 -58.27,2.58 -87.29,1.34 -14.06,-0.54 -22.15,4.05 -30.48,14.51 -30.47,38.03 -61.75,75.46 -92.68,113.05 -18.65,22.7 -36.31,29.81 -62.52,18.65 -64.68,-27.2 -128.8,-55.98 -192.56,-85.25 -22.48,-10.33 -31.82,-29.68 -29.91,-54.87 4.15,-52.54 7.75,-105.18 10.46,-157.91 0.45,-7.43 -3.73,-16.55 -8.54,-22.51 -8.55,-10.33 -21.94,-17.21 -28.92,-28.34 -21.36,-34.75 -53.21,-35.2 -88.18,-32.04 -41.03,3.82 -82.19,5.39 -123.48,8.41 -19.58,1.47 -34.21,-6.05 -43.74,-23.05 -9.57,-17.08 -20.02,-33.95 -27.8,-51.84 -5.74,-13.16 -13.17,-17.53 -27.23,-17.43 -92.2,0.67 -184.34,0.35 -276.45,0.35l-495.75 0c-385.1,0 -770.1,0.22 -1155.2,-0.58 -15.85,0 -34.31,-5.07 -46.36,-14.41 -9.21,-7.08 -14.28,-24.83 -14.28,-37.78 -0.89,-208.63 -0.54,-417.26 -0.54,-625.9 0,-183.54 0,-367.11 -0.13,-550.66 0,-233.5 0.13,-467.09 -0.22,-700.69 -0.1,-25.41 3.82,-48.01 30.16,-58.37 23.84,-9.35 43.17,-0.58 59.81,17.88 57.48,63.89 115.5,127.3 173.43,190.97 89.43,98.07 178.83,196.04 268.16,294.24 3.47,3.82 5.83,8.64 8.77,13.04 1.91,-1.34 3.92,-2.71 5.83,-4.05z"/>
   </g>
   <path class="fil0" d="M3025.81 2710l0 44.32c0,13.71 -11.22,24.83 -24.96,24.83l-1297.58 0c-25.98,0 -47.12,-21.01 -47.12,-46.99 0,-25.98 21.14,-47.12 47.12,-47.12l1297.58 0c13.74,0 24.96,11.25 24.96,24.96z"/>
   <path class="fil0" d="M3346.32 3951.44l0 -505.1c-71.64,26.97 -156.57,117.96 -160.72,246.99 -3.37,106.26 69.06,223.68 160.72,258.11zm98.64 27.32c97.05,17.54 210.68,-40.14 268.7,-134.95 59.94,-98.33 51.97,-225.41 -20.69,-320 -63.8,-83.21 -174.46,-120.45 -248.01,-104.25l0 559.2zm-355.96 -281.16c0.77,-219.57 184.66,-387.59 398.14,-379.84 201.21,7.21 368.11,182.78 363.61,388.03 -4.72,214.72 -179.49,378.6 -398.36,373.18 -198.97,-4.82 -367.91,-182.08 -363.39,-381.37z"/>
   <path class="fil0" d="M1328.44 3287.44l0 396.55 360.9 0c-120.9,-132.92 -239.21,-262.84 -360.9,-396.55zm-260.6 -286.26l0 682.93 160.94 0c0.44,-3.92 1.02,-6.53 1.02,-9.12 0,-161.16 0.12,-322.22 -0.23,-483.38 0,-6.64 -2.8,-14.86 -7.2,-19.8 -50.15,-55.89 -100.65,-111.36 -154.53,-170.63zm-98.42 303.89c0,-141.58 0.13,-283.07 -0.1,-424.69 -0.12,-23.05 7.53,-41.16 29.46,-50.73 20.6,-9.08 40.94,-3.79 58.38,15.44 119.43,131.12 238.66,262.51 358,393.64 121.34,133.17 242.71,266.11 364.05,399.15 18.24,19.9 36.57,39.92 54.78,59.94 14.05,15.75 20.91,33.19 12.14,54.01 -9.21,21.81 -26.08,31.02 -49.7,31.02 -258.02,-0.32 -516.13,-0.22 -774.15,-0.45 -35.29,0 -52.73,-18.42 -52.73,-54.64 -0.13,-140.95 -0.13,-281.74 -0.13,-422.69z"/>
  </g>
 </g>
</svg>
