<?xml version="1.0" encoding="UTF-8"?>
<!DOCTYPE svg PUBLIC "-//W3C//DTD SVG 1.1//EN" "http://www.w3.org/Graphics/SVG/1.1/DTD/svg11.dtd">
<!-- Creator: CorelDRAW -->
<svg xmlns="http://www.w3.org/2000/svg" xml:space="preserve" width="50mm" height="50mm" version="1.1" style="shape-rendering:geometricPrecision; text-rendering:geometricPrecision; image-rendering:optimizeQuality; fill-rule:evenodd; clip-rule:evenodd"
viewBox="0 0 5000 5000"
 xmlns:xlink="http://www.w3.org/1999/xlink"
 xmlns:xodm="http://www.corel.com/coreldraw/odm/2003">
 <defs>
  <style type="text/css">
   <![CDATA[
    .fil0 {fill:#373435;fill-rule:nonzero}
   ]]>
  </style>
 </defs>
 <g id="Capa_x0020_1">
  <metadata id="CorelCorpID_0Corel-Layer"/>
  <g id="_1599553868432">
   <path class="fil0" d="M4281.45 3554.01l-123.26 0 0 -1047.95c0,-7.38 -1.29,-14.67 -3.89,-21.59l-184.88 -493.16c-9.02,-24.09 -32.15,-40.03 -57.74,-40.03 -25.72,0 -48.75,15.94 -57.9,40.03l-184.88 493.16c-2.6,6.92 -3.86,14.21 -3.86,21.59l0 1047.95 -1232.86 0 0 -554.79c0,-22.06 -11.85,-42.49 -31.12,-53.54l-215.53 -123.12 0 -2104.14 1479.51 0 0 554.78c0,34.04 27.58,61.63 61.62,61.63l554.79 0 0 2219.18zm-369.77 739.7c-67.98,0 -123.29,-55.3 -123.29,-123.26l0 -123.25 246.42 0 0 123.25c0,67.96 -55.18,123.26 -123.13,123.26zm0 -1738.46l-110.14 -73.38 110.14 -293.36 109.98 293.36 -109.98 73.38zm61.63 107.05l61.5 -41.07 0 1302.68 -61.5 0 0 -1261.61zm-123.39 0l0 1261.61 -61.53 0 0 -1302.68 61.53 41.07zm-2280.7 1586.92l0 -721.04 184.88 -105.75 0 193.21c0,21.39 11.05,41.22 29.35,52.47 9.88,6.13 21.03,9.19 32.31,9.19 9.39,0 18.9,-2.13 27.45,-6.46l246.65 -123.29c20.9,-10.45 34.17,-31.81 34.17,-55.17l0 -281.25 184.89 -105.66 0 721.01 -739.7 422.74zm-863.06 -1143.75l739.8 422.71 0 721.04 -739.8 -422.74 0 -721.01zm254.26 -215.76l738.87 422.14 -191.8 109.52 -738.64 -422.15 191.57 -109.51zm885.96 364.24l-761.64 -435.15 106.95 -61.17 808.96 462.28 0 234.33 -123.26 61.73 0 -208.48c0,-22.19 -11.88,-42.62 -31.01,-53.54zm-338.89 -676.87l738.74 422.14 -191.58 109.55 -738.77 -422.15 191.61 -109.54zm2280.9 -1771.45l405.94 405.94 -405.94 0 0 -405.94zm598.25 423.91l-616.32 -616.31c-11.14,-11.15 -26.52,-18.07 -43.66,-18.07l-1602.63 0c-34.17,0 -61.66,27.59 -61.66,61.63l0 2095.32 -524.27 -299.59c-18.9,-10.78 -42.26,-10.78 -61.16,0l-862.93 493.16c-19.26,11.05 -31.11,31.48 -31.11,53.54l0 862.96c0,22.2 11.85,42.59 31.11,53.51l862.93 493.19c9.42,5.39 19.97,8.22 30.55,8.22 10.55,0 21.23,-2.83 30.61,-8.22l862.96 -493.19c19.27,-10.92 31.12,-31.31 31.12,-53.51l0 -184.88 1232.86 0 0 493.15c0,135.94 110.57,246.65 246.64,246.65 135.94,0 246.51,-110.71 246.51,-246.65l0 -493.15 184.89 0c34.04,0 61.76,-27.59 61.76,-61.66l0 -2342.44c0,-17 -7.05,-32.51 -18.2,-43.66z"/>
   <path class="fil0" d="M2432.74 1582.61l1601.6 0c34.04,0 61.63,27.58 61.63,61.63 0,34.04 -27.59,61.62 -61.63,61.62l-1601.6 0c-34.04,0 -61.63,-27.58 -61.63,-61.62 0,-34.05 27.59,-61.63 61.63,-61.63z"/>
   <path class="fil0" d="M2432.74 1891.41l1015.93 0c34.04,0 61.73,27.59 61.73,61.63 0,34.04 -27.69,61.63 -61.73,61.63l-1015.93 0c-34.04,0 -61.63,-27.59 -61.63,-61.63 0,-34.04 27.59,-61.63 61.63,-61.63z"/>
   <path class="fil0" d="M2432.74 2200.22l985.15 0c34.04,0 61.63,27.59 61.63,61.63 0,34.04 -27.59,61.63 -61.63,61.63l-985.15 0c-34.04,0 -61.63,-27.59 -61.63,-61.63 0,-34.04 27.59,-61.63 61.63,-61.63z"/>
   <path class="fil0" d="M2432.74 2508.99l985.15 0c34.04,0 61.63,27.59 61.63,61.63 0,34.04 -27.59,61.63 -61.63,61.63l-985.15 0c-34.04,0 -61.63,-27.59 -61.63,-61.63 0,-34.04 27.59,-61.63 61.63,-61.63z"/>
  </g>
 </g>
</svg>
