<?xml version="1.0" encoding="UTF-8"?>
<!DOCTYPE svg PUBLIC "-//W3C//DTD SVG 1.1//EN" "http://www.w3.org/Graphics/SVG/1.1/DTD/svg11.dtd">
<!-- Creator: CorelDRAW -->
<svg xmlns="http://www.w3.org/2000/svg" xml:space="preserve" width="170px" height="55px" version="1.1" style="shape-rendering:geometricPrecision; text-rendering:geometricPrecision; image-rendering:optimizeQuality; fill-rule:evenodd; clip-rule:evenodd"
viewBox="0 0 17000 5500"
 xmlns:xlink="http://www.w3.org/1999/xlink"
 xmlns:xodm="http://www.corel.com/coreldraw/odm/2003">
 <defs>
  <style type="text/css">
   <![CDATA[
    .fil0 {fill:#FEFEFE;fill-rule:nonzero}
   ]]>
  </style>
 </defs>
 <g id="Capa_x0020_1">
  <metadata id="CorelCorpID_0Corel-Layer"/>
  <g id="_2285403544864">
   <path class="fil0" d="M7171.68 1863.29l-625.73 0 0 -572.72 0 -446.3 625.73 0c281.37,0 500.12,225.07 500.12,509.51 0,284.44 -218.75,509.51 -500.12,509.51zm0 -1316l-625.73 -0.16 -309.8 0 0 0.16 0.17 2279.16 309.46 0 0 -666.18 625.9 0c431.41,9.39 812.75,-371.97 806.51,-806.49 6.24,-434.52 -375.1,-815.87 -806.51,-806.49z"/>
   <path class="fil0" d="M8978.23 2558.91c287.97,0 508.74,-230.39 508.74,-521.53 0,-291.19 -217.59,-521.52 -508.74,-521.52 -291.14,0 -515.12,230.33 -515.12,521.52 0,291.14 227.19,521.53 515.12,521.53zm-3.18 303.97c-444.7,9.58 -835.08,-380.76 -825.49,-825.5 -9.59,-444.72 380.79,-835.1 825.49,-825.48 444.71,-9.62 835.1,380.76 825.5,825.48 9.6,444.74 -380.79,835.08 -825.5,825.5z"/>
   <polygon class="fil0" points="10110.39,1237.49 10423.9,1237.49 10423.9,2837.27 10110.39,2837.27 "/>
   <path class="fil0" d="M12181.07 2837.26l-313.55 0 0 -841.47c0,-319.95 -137.59,-479.97 -390.35,-479.97 -252.8,0 -390.35,160.02 -390.35,479.97l0 841.47 -313.55 0 0 -841.47c0,-521.53 278.38,-783.89 703.9,-783.89 425.55,0 703.9,262.36 703.9,783.89l0 841.47z"/>
   <path class="fil0" d="M13377.62 1541.44l0 -303.96 -571.29 0 0 -633.26 -313.55 0c0,0 0.28,1489.13 0.39,1494.75 7.87,488.32 262.96,739.43 652.07,747.49 2.26,0.11 4.41,0.3 6.63,0.4l0 -0.24c4.27,0.07 8.51,0.24 12.81,0.24l167.78 0 0 -303.95c0,0 -180.41,-0.58 -186.72,-0.82 -164.29,-6.24 -273.51,-92.96 -317.4,-266.88 -1.51,-5.93 -2.75,-12.17 -4.13,-18.3 -1.58,-7.42 -3.42,-14.57 -4.83,-22.34 -8.61,-47.31 -13.05,-100.18 -13.05,-158.82l0 -534.31 571.29 0z"/>
   <path class="fil0" d="M13896.29 1896.61c60.82,-227.15 243.17,-380.75 486.34,-380.75 227.16,0 419.14,159.98 479.92,380.75l-966.26 0zm1302.21 111.97c-12.77,-483.12 -409.54,-796.68 -825.5,-796.68 -444.71,-9.62 -822.25,383.93 -812.66,828.69 -9.59,444.7 371.12,831.87 822.29,822.29 306.57,0 583.39,-167.73 729.9,-426.58l-394.37 0c-93.03,81.03 -208.07,122.61 -345.16,122.61 -255.94,0 -451.13,-166.37 -476.71,-406.36l1292.62 0c6.42,-41.55 9.59,-89.57 9.59,-143.97z"/>
   <path class="fil0" d="M16160.05 1231.08c-406.33,0 -671.9,259.19 -671.9,771.12l0 835.06 313.54 0 0 -835.06c0,-316.77 127.99,-467.12 358.36,-467.12l374.68 0 0 -304 -374.68 0z"/>
   <path class="fil0" d="M10267.33 571.83c115.46,0 206.45,94.48 206.45,209.95 0,115.46 -90.99,209.93 -206.45,209.93 -115.46,0 -209.97,-94.47 -209.97,-209.93 0,-122.5 94.51,-209.95 209.97,-209.95z"/>
   <path class="fil0" d="M6287.37 3596.44l0 1304.05 890.5 0 0 -148.94 -734.16 0 0 -434.15 667.08 0 0 -148.95 -667.08 0 0 -423.08 723.07 0 0 -148.93 -879.41 0zm1285.37 1304.05l0 -514.43 313.19 0 426.24 514.43 195.95 0 -441.55 -527.12c184.33,-33.8 348.07,-141.54 348.07,-382.4 0,-297.87 -253,-394.53 -488.04,-394.53l-510.2 0 0 1304.05 156.34 0zm0 -1155.12l361.26 0c156.86,0 322.71,50.19 322.71,245.6 0,193.84 -165.85,246.13 -322.71,246.13l-361.26 0 0 -491.73zm1124.75 -148.93l0 1304.05 156.33 0 0 -462.14 288.91 0c301.58,0 553,-95.07 553,-420.96 0,-326.4 -251.42,-420.95 -553,-420.95l-445.24 0zm840.31 420.95c0,219.71 -175.35,272.01 -387.68,272.01l-296.3 0 0 -544.03 296.3 0c214.44,0 387.68,50.19 387.68,272.02z"/>
   <path class="fil0" d="M451.41 3730.12l0 1307.36c360.86,-0.22 653.31,-292.78 653.31,-653.7l0 -0.99 -0.03 0c-0.53,-360.44 -292.77,-652.46 -653.28,-652.67z"/>
   <path class="fil0" d="M4371.24 1119.43c-111.69,-125.19 -239.18,-235.97 -379.38,-329.22 -310.4,-206.29 -682.9,-326.63 -1083.55,-326.63l-0.04 0 -2456.85 0 0 1671.56c175.58,0 346.47,20.23 510.47,58.35 209.83,48.76 408.34,127 591.05,230.03 160.93,90.68 309.59,200.55 442.8,326.63 83.72,79.26 161.33,164.88 232.09,256.12 67.7,87.28 129.05,179.59 183.48,276.4 181.3,322.33 285.4,693.83 287.24,1089.58 0,3.52 0.14,7.02 0.14,10.54l0 0 161.25 0c16.05,0.4 32.18,0.6 48.33,0.6l0.04 0c16.15,0 32.28,-0.2 48.36,-0.6 562.19,-13.61 1065.6,-264.02 1414.57,-655.21 309.04,-346.46 496.96,-803.27 496.96,-1304.06 0,-500.82 -187.92,-957.67 -496.96,-1304.09z"/>
   <path class="fil0" d="M1720.45 3201.85l-88.44 -88.46c-18.84,-18.82 -38,-37.03 -57.47,-54.81 -180.62,-165.03 -387.7,-284.9 -606.81,-359.65 -167.4,-57.15 -341.77,-87.99 -516.72,-92.44l0 653.42 0.04 0c620.29,0 1123.14,502.7 1123.49,1122.92l652.81 0c-1.05,-41.39 -3.56,-82.7 -7.58,-123.9 -37.36,-385.87 -203.8,-761.57 -499.32,-1057.08z"/>
  </g>
 </g>
</svg>
