<?xml version="1.0" encoding="UTF-8"?>
<!DOCTYPE svg PUBLIC "-//W3C//DTD SVG 1.1//EN" "http://www.w3.org/Graphics/SVG/1.1/DTD/svg11.dtd">
<!-- Creator: CorelDRAW -->
<svg xmlns="http://www.w3.org/2000/svg" xml:space="preserve" width="18mm" height="18mm" version="1.1" style="shape-rendering:geometricPrecision; text-rendering:geometricPrecision; image-rendering:optimizeQuality; fill-rule:evenodd; clip-rule:evenodd"
viewBox="0 0 1800 1800"
 xmlns:xlink="http://www.w3.org/1999/xlink"
 xmlns:xodm="http://www.corel.com/coreldraw/odm/2003">
 <defs>
  <style type="text/css">
   <![CDATA[
    .fil0 {fill:#FEFEFE}
   ]]>
  </style>
 </defs>
 <g id="Capa_x0020_1">
  <metadata id="CorelCorpID_0Corel-Layer"/>
  <path class="fil0" d="M15.55 905.97c0,484.39 394.06,878.51 878.53,878.51 484.39,0 878.51,-394.12 878.51,-878.51 0,-484.43 -394.12,-878.59 -878.51,-878.59l0 0c-484.47,0 -878.53,394.16 -878.53,878.59zm1368.56 -297.88c0,-27.34 0.03,-53.58 0,-79.83 -0.04,-18.58 -5.95,-24.44 -24.51,-24.44 -87.87,0.05 -175.69,0.11 -263.51,0.11 -223.21,-0.04 -446.37,-0.06 -669.58,-0.11 -15.83,0 -22.3,6.41 -22.42,22.37 -0.15,24.97 -0.06,49.93 -0.02,74.88 0.02,2.26 0.56,4.52 0.86,7.02l979.18 0zm-840.21 -52.35c0.13,9.64 -7.61,17.72 -17.15,17.8 -9.27,0.12 -17.82,-8.16 -17.99,-17.34 -0.22,-9.47 7.71,-17.37 17.49,-17.48 10.11,-0.07 17.51,7.05 17.65,17.02zm-70.08 0.18c0.04,9.76 -7.62,17.62 -17.2,17.64 -9.24,0.04 -17.59,-8.19 -17.7,-17.48 -0.05,-9.61 7.62,-17.23 17.53,-17.26 10.13,-0.04 17.34,7.07 17.37,17.1zm123.43 -17.08c9.83,0.24 17.29,8.17 16.83,17.83 -0.4,9.42 -8.91,17.29 -18.16,16.89 -9.32,-0.4 -17.46,-9.14 -17,-18.21 0.47,-9.65 8.35,-16.75 18.33,-16.51zm454.82 209.29l235.63 0c1.69,0 3.38,-0.04 5.12,0 12.84,0.26 21.02,6.85 21.42,17.23 0.42,10.74 -7.7,18.1 -21.31,18.22 -34.49,0.28 -68.99,0.2 -103.49,0.24 -121.88,0 -243.81,0 -365.69,-0.04 -6.12,0 -12.31,0 -18.41,-0.65 -10.04,-1.12 -15.72,-7.34 -15.96,-16.62 -0.28,-9.46 5.95,-16.72 15.82,-18.12 3.35,-0.44 6.81,-0.26 10.2,-0.26 78.9,0 157.77,0 236.67,0zm-1.22 245.88c-79.55,0 -159.13,0.02 -238.73,-0.04 -15.12,0 -23.11,-6.72 -22.75,-18.7 0.25,-8.2 4.48,-13.56 12.1,-15.78 4.18,-1.21 8.77,-1.5 13.15,-1.5 158.13,-0.06 316.24,-0.06 474.34,-0.06 1.03,0 2.07,0 3.08,0.05 13.94,0.52 21.97,6.95 22.19,17.65 0.24,11.01 -8.41,18.21 -22.61,18.23 -80.24,0.08 -160.52,0.04 -240.77,0.04l0 0.11zm2.23 -141.07c78.18,0 156.42,0 234.62,0 17.81,0 26.97,6.36 26.66,18.36 -0.35,11.64 -9.37,17.81 -26.33,17.81 -157.83,-0.03 -315.62,-0.07 -473.43,-0.18 -4.01,0 -8.18,-0.43 -12.12,-1.34 -8.31,-1.93 -12.81,-7.42 -13.1,-16 -0.26,-9.07 4.12,-15.02 12.82,-17.21 4.22,-1.09 8.77,-1.38 13.16,-1.38 79.24,-0.06 158.46,-0.06 237.72,-0.06zm-160.1 350.49c-131.19,0 -262.42,0 -393.63,0 -16.78,0 -25.1,-5.58 -25.44,-17.03 -0.38,-11.79 8.41,-17.95 25.55,-17.95 263.12,0 526.21,0 789.32,0 16.76,0 25.15,5.61 25.47,17.04 0.4,11.78 -8.36,17.94 -25.58,17.94 -131.9,0 -263.8,0 -395.69,0zm2.23 -140.15c130.18,0 260.36,0 390.55,0 3.75,0 7.56,-0.03 11.25,0.27 9.95,0.82 16.93,7.82 17.21,16.94 0.32,9.26 -7.17,17.41 -17.34,17.99 -8.85,0.53 -17.78,0.29 -26.66,0.29 -255.94,0 -511.86,0 -767.82,0 -3.74,0 -7.52,0.08 -11.24,-0.25 -10.16,-0.94 -17.63,-8.94 -17.25,-18.19 0.38,-9.13 7.34,-16.42 17.42,-16.6 24.57,-0.45 49.18,-0.41 73.8,-0.45 110.01,-0.03 220.03,0 330.08,0zm-212.51 -105.95l0 -173.15c-2.5,-0.19 -4.18,-0.48 -5.86,-0.48 -52.92,-0.02 -105.84,0.11 -158.78,-0.2 -7.73,-0.05 -8.89,3.11 -8.87,9.73 0.18,51.9 0.12,103.81 0.14,155.7 0,2.65 0.41,5.34 0.71,8.4l172.66 0zm-85.88 -209.31c32.78,0 65.6,-0.05 98.4,0.04 17.72,0 24.27,6.42 24.27,23.95 0.08,65.98 0.08,131.92 0,197.87 0,17.43 -6.63,23.98 -24.29,23.98 -65.64,0.08 -131.23,0.08 -196.84,0 -18.34,0 -24.68,-6.33 -24.72,-24.61 0,-65.59 0,-131.19 0,-196.82 0.04,-18.43 6.1,-24.37 24.74,-24.37 32.81,-0.04 65.6,-0.04 98.44,-0.04zm-192.68 -104.26c0,4.4 0,7.75 0,11.1 -0.05,209.1 -0.07,418.27 -0.11,627.39 0,20.56 5.38,25.78 26.25,25.78 309.23,0 618.47,0 927.75,0 20.79,0 26.08,-5.24 26.08,-25.9 0,-209.18 0,-418.3 0,-627.44l0 -10.93 -979.97 0zm-35.07 -133.62c6.78,-18.78 17.19,-34.21 37.8,-39.47 6.89,-1.74 14.13,-2.64 21.22,-2.64 236.53,-0.16 473.02,-0.16 709.5,-0.13 74.19,0 148.35,-0.03 222.54,0.23 31.04,0.06 50.74,14.21 57.42,40.69 1.27,5.2 1.44,10.8 1.44,16.23 0.08,253.93 0.08,507.87 0.05,761.8 0,35.35 -22.02,57.05 -57.82,57.05 -66.33,0 -132.62,-0.09 -198.91,-0.06 -236.86,0.04 -473.71,0.1 -710.57,0.16 -10.9,0 -21.88,0 -32.76,-0.81 -24.87,-1.89 -40.88,-15.12 -48.17,-38.99 -0.29,-0.9 -1.14,-1.63 -1.74,-2.47l0 -791.59z"/>
 </g>
</svg>
