<?xml version="1.0" encoding="UTF-8"?>
<!DOCTYPE svg PUBLIC "-//W3C//DTD SVG 1.1//EN" "http://www.w3.org/Graphics/SVG/1.1/DTD/svg11.dtd">
<!-- Creator: CorelDRAW -->
<svg xmlns="http://www.w3.org/2000/svg" xml:space="preserve" width="18mm" height="18mm" version="1.1" style="shape-rendering:geometricPrecision; text-rendering:geometricPrecision; image-rendering:optimizeQuality; fill-rule:evenodd; clip-rule:evenodd"
viewBox="0 0 1800 1800"
 xmlns:xlink="http://www.w3.org/1999/xlink"
 xmlns:xodm="http://www.corel.com/coreldraw/odm/2003">
 <defs>
  <style type="text/css">
   <![CDATA[
    .fil1 {fill:#FEFEFE}
    .fil0 {fill:#373435}
   ]]>
  </style>
 </defs>
 <g id="Capa_x0020_1">
  <metadata id="CorelCorpID_0Corel-Layer"/>
  <path class="fil0" d="M3926.52 767.23c0,484.39 394.06,878.51 878.53,878.51 484.39,0 878.51,-394.12 878.51,-878.51 0,-484.43 -394.12,-878.59 -878.51,-878.59l0 0c-484.47,0 -878.53,394.16 -878.53,878.59zm1368.56 -297.88c0,-27.34 0.03,-53.58 0,-79.83 -0.04,-18.58 -5.95,-24.44 -24.51,-24.44 -87.87,0.05 -175.69,0.11 -263.51,0.11 -223.21,-0.04 -446.37,-0.06 -669.58,-0.11 -15.83,0 -22.3,6.41 -22.42,22.37 -0.15,24.97 -0.06,49.93 -0.02,74.88 0.02,2.26 0.56,4.52 0.86,7.02l979.18 0zm-840.21 -52.35c0.13,9.64 -7.61,17.72 -17.15,17.8 -9.27,0.12 -17.82,-8.16 -17.99,-17.34 -0.22,-9.47 7.71,-17.37 17.49,-17.48 10.11,-0.07 17.51,7.05 17.65,17.02zm-70.08 0.18c0.04,9.76 -7.62,17.62 -17.2,17.64 -9.24,0.04 -17.59,-8.19 -17.7,-17.48 -0.05,-9.61 7.62,-17.23 17.53,-17.26 10.13,-0.04 17.34,7.07 17.37,17.1zm123.43 -17.08c9.83,0.24 17.29,8.17 16.83,17.83 -0.4,9.42 -8.91,17.29 -18.16,16.89 -9.32,-0.4 -17.46,-9.14 -17,-18.21 0.47,-9.65 8.35,-16.75 18.33,-16.51zm454.82 209.29l235.63 0c1.69,0 3.38,-0.04 5.12,0 12.84,0.26 21.02,6.85 21.42,17.23 0.42,10.74 -7.7,18.1 -21.31,18.22 -34.49,0.28 -68.99,0.2 -103.49,0.24 -121.88,0 -243.81,0 -365.69,-0.04 -6.12,0 -12.31,0 -18.41,-0.65 -10.04,-1.12 -15.72,-7.34 -15.96,-16.62 -0.28,-9.46 5.95,-16.72 15.82,-18.12 3.35,-0.44 6.81,-0.26 10.2,-0.26 78.9,0 157.77,0 236.67,0zm-1.22 245.88c-79.55,0 -159.13,0.02 -238.73,-0.04 -15.12,0 -23.11,-6.72 -22.75,-18.7 0.25,-8.2 4.48,-13.56 12.1,-15.78 4.18,-1.21 8.77,-1.5 13.15,-1.5 158.13,-0.06 316.24,-0.06 474.34,-0.06 1.03,0 2.07,0 3.08,0.05 13.94,0.52 21.97,6.95 22.19,17.65 0.24,11.01 -8.41,18.21 -22.61,18.23 -80.24,0.08 -160.52,0.04 -240.77,0.04l0 0.11zm2.23 -141.07c78.18,0 156.42,0 234.62,0 17.81,0 26.97,6.36 26.66,18.36 -0.35,11.64 -9.37,17.81 -26.33,17.81 -157.83,-0.03 -315.62,-0.07 -473.43,-0.18 -4.01,0 -8.18,-0.43 -12.12,-1.34 -8.31,-1.93 -12.81,-7.42 -13.1,-16 -0.26,-9.07 4.12,-15.02 12.82,-17.21 4.22,-1.09 8.77,-1.38 13.16,-1.38 79.24,-0.06 158.46,-0.06 237.72,-0.06zm-160.1 350.49c-131.19,0 -262.42,0 -393.63,0 -16.78,0 -25.1,-5.58 -25.44,-17.03 -0.38,-11.79 8.41,-17.95 25.55,-17.95 263.12,0 526.21,0 789.32,0 16.76,0 25.15,5.61 25.47,17.04 0.4,11.78 -8.36,17.94 -25.58,17.94 -131.9,0 -263.8,0 -395.69,0zm2.23 -140.15c130.18,0 260.36,0 390.55,0 3.75,0 7.56,-0.03 11.25,0.27 9.95,0.82 16.93,7.82 17.21,16.94 0.32,9.26 -7.17,17.41 -17.34,17.99 -8.85,0.53 -17.78,0.29 -26.66,0.29 -255.94,0 -511.86,0 -767.82,0 -3.74,0 -7.52,0.08 -11.24,-0.25 -10.16,-0.94 -17.63,-8.94 -17.25,-18.19 0.38,-9.13 7.34,-16.42 17.42,-16.6 24.57,-0.45 49.18,-0.41 73.8,-0.45 110.01,-0.03 220.03,0 330.08,0zm-212.51 -105.95l0 -173.15c-2.5,-0.19 -4.18,-0.48 -5.86,-0.48 -52.92,-0.02 -105.84,0.11 -158.78,-0.2 -7.73,-0.05 -8.89,3.11 -8.87,9.73 0.18,51.9 0.12,103.81 0.14,155.7 0,2.65 0.41,5.34 0.71,8.4l172.66 0zm-85.88 -209.31c32.78,0 65.6,-0.05 98.4,0.04 17.72,0 24.27,6.42 24.27,23.95 0.08,65.98 0.08,131.92 0,197.87 0,17.43 -6.63,23.98 -24.29,23.98 -65.64,0.08 -131.23,0.08 -196.84,0 -18.34,0 -24.68,-6.33 -24.72,-24.61 0,-65.59 0,-131.19 0,-196.82 0.04,-18.43 6.1,-24.37 24.74,-24.37 32.81,-0.04 65.6,-0.04 98.44,-0.04zm-192.68 -104.26c0,4.4 0,7.75 0,11.1 -0.05,209.1 -0.07,418.27 -0.11,627.39 0,20.56 5.38,25.78 26.25,25.78 309.23,0 618.47,0 927.75,0 20.79,0 26.08,-5.24 26.08,-25.9 0,-209.18 0,-418.3 0,-627.44l0 -10.93 -979.97 0zm-35.07 -133.62c6.78,-18.78 17.19,-34.21 37.8,-39.47 6.89,-1.74 14.13,-2.64 21.22,-2.64 236.53,-0.16 473.02,-0.16 709.5,-0.13 74.19,0 148.35,-0.03 222.54,0.23 31.04,0.06 50.74,14.21 57.42,40.69 1.27,5.2 1.44,10.8 1.44,16.23 0.08,253.93 0.08,507.87 0.05,761.8 0,35.35 -22.02,57.05 -57.82,57.05 -66.33,0 -132.62,-0.09 -198.91,-0.06 -236.86,0.04 -473.71,0.1 -710.57,0.16 -10.9,0 -21.88,0 -32.76,-0.81 -24.87,-1.89 -40.88,-15.12 -48.17,-38.99 -0.29,-0.9 -1.14,-1.63 -1.74,-2.47l0 -791.59z"/>
  <path class="fil0" d="M3926.52 767.23c0,484.39 394.06,878.51 878.53,878.51 484.39,0 878.51,-394.12 878.51,-878.51 0,-484.43 -394.12,-878.59 -878.51,-878.59l0 0c-484.47,0 -878.53,394.16 -878.53,878.59zm1071.9 135.3c-11.86,0 -21.52,9.61 -21.52,21.47l0 148.25c0,59.24 -48.16,107.44 -107.41,107.44l-231.94 0c-11.87,0 -21.47,9.6 -21.47,21.45l-0.04 42.75 -51.28 -51.29c-3.33,-7.65 -10.9,-12.91 -19.69,-12.91l-139.6 0c-59.21,0 -107.42,-48.2 -107.42,-107.44l0 -330.84c0,-59.25 48.21,-107.4 107.42,-107.4l216.96 0c11.87,0 21.5,-9.62 21.5,-21.48 0,-11.86 -9.63,-21.52 -21.5,-21.52l-216.96 0c-82.9,0 -150.42,67.45 -150.42,150.4l0 330.84c0,82.93 67.52,150.4 150.42,150.4l128.58 0 88.26 88.26c4.1,4.1 9.6,6.28 15.16,6.28 2.81,0 5.57,-0.55 8.23,-1.67 8.03,-3.32 13.28,-11.14 13.28,-19.8l0.02 -73.07 210.49 0c82.95,0 150.4,-67.47 150.4,-150.4l0 -148.25c0,-11.86 -9.61,-21.47 -21.47,-21.47zm-292.19 -139.64l-313.67 0c-11.87,0 -21.48,9.61 -21.48,21.46 0,11.87 9.61,21.52 21.48,21.52l313.67 0c11.88,0 21.51,-9.65 21.51,-21.52 0,-11.85 -9.63,-21.46 -21.51,-21.46zm55.15 240.62l-368.82 0c-11.83,0 -21.49,9.61 -21.49,21.47 0,11.87 9.66,21.52 21.49,21.52l368.82 0c11.85,0 21.47,-9.65 21.47,-21.52 0,-11.86 -9.62,-21.47 -21.47,-21.47zm99.68 6.29c-3.98,-3.99 -9.54,-6.29 -15.2,-6.29 -5.64,0 -11.2,2.3 -15.16,6.29 -4.02,3.99 -6.33,9.55 -6.33,15.18 0,5.68 2.31,11.21 6.33,15.18 3.96,4.03 9.52,6.34 15.16,6.34 5.66,0 11.22,-2.31 15.2,-6.34 4.01,-3.97 6.3,-9.5 6.3,-15.18 0,-5.63 -2.29,-11.19 -6.3,-15.18zm-15.2 -126.6l-453.28 0c-11.87,0 -21.48,9.62 -21.48,21.48 0,11.86 9.61,21.5 21.48,21.5l453.28 0c11.88,0 21.5,-9.64 21.5,-21.5 0,-11.86 -9.62,-21.48 -21.5,-21.48zm190.93 -216.42c-3.99,-4.02 -9.53,-6.29 -15.18,-6.29 -5.66,0 -11.21,2.27 -15.16,6.29 -4.03,4.01 -6.35,9.55 -6.35,15.18 0,5.68 2.32,11.25 6.35,15.21 3.95,4.03 9.5,6.29 15.16,6.29 5.65,0 11.19,-2.26 15.18,-6.29 4.01,-4.01 6.31,-9.53 6.31,-15.21 0,-5.63 -2.3,-11.17 -6.31,-15.18zm75.55 -214.5c-3.07,-44.99 -39.35,-81.22 -84.32,-84.33 -25.5,-1.78 -49.8,6.86 -68.47,24.23 -18.34,17.16 -28.88,41.4 -28.88,66.51 0,11.86 9.58,21.47 21.47,21.47 11.86,0 21.49,-9.61 21.49,-21.47 0,-13.45 5.4,-25.89 15.25,-35.09 9.84,-9.18 22.66,-13.72 36.19,-12.77 23.67,1.63 42.76,20.71 44.41,44.41 1.64,23.93 -14.05,45.06 -37.33,50.26 -18.85,4.23 -32.03,20.62 -32.03,39.87l0 51.61c0,11.88 9.61,21.51 21.48,21.51 11.89,0 21.51,-9.63 21.51,-21.51l0 -49.9c43.3,-10.44 72.32,-50.05 69.23,-94.8zm92.27 292.44c-5.39,4.03 -8.54,10.4 -8.54,17.14l0 82.96 -52.62 -52.58c-4.05,-4.07 -9.51,-6.29 -15.16,-6.29 -2.12,0 -4.2,0.31 -6.3,0.98 -25.59,7.85 -52.2,11.82 -79.22,11.82l-54.36 0c-148.49,0 -269.31,-120.78 -269.31,-269.26 0,-148.51 120.82,-269.33 269.31,-269.33l54.36 0c148.5,0 269.28,120.82 269.28,269.33 0,85.35 -39.14,163.79 -107.44,215.23zm-161.84 -527.52l-54.36 0c-172.16,0 -312.25,140.07 -312.25,312.29 0,172.18 140.09,312.24 312.25,312.24l54.36 0c26.86,0 53.51,-3.43 79.27,-10.16l80.32 80.26c4.12,4.11 9.57,6.29 15.18,6.29 2.77,0 5.59,-0.54 8.22,-1.63 8.04,-3.35 13.25,-11.15 13.25,-19.84l0 -124.33c34.04,-27.51 62.24,-62.29 82.1,-101.16 22.51,-44.16 33.93,-91.82 33.93,-141.67 0,-172.22 -140.1,-312.29 -312.27,-312.29z"/>
  <path class="fil1" d="M15.55 905.97c0,484.39 394.06,878.51 878.53,878.51 484.39,0 878.51,-394.12 878.51,-878.51 0,-484.43 -394.12,-878.59 -878.51,-878.59l0 0c-484.47,0 -878.53,394.16 -878.53,878.59zm1072.69 153.2l-165.22 -165.23 0 -328c0,-15.99 -12.94,-28.93 -28.92,-28.93 -16,0 -28.97,12.94 -28.97,28.93l0 339.99c0,7.7 3.07,15.03 8.47,20.49l173.65 173.68c5.67,5.6 13.09,8.46 20.49,8.46 7.45,0 14.82,-2.86 20.5,-8.46 11.31,-11.3 11.31,-29.64 0,-40.93zm463.18 -115.85l-115.81 -115.78c-11.25,-11.31 -29.63,-11.31 -40.94,0l-115.79 115.78c-11.29,11.29 -11.29,29.61 0,40.91 11.29,11.31 29.68,11.31 40.97,0l66.18 -66.21c-6.45,265.79 -224.66,480.03 -491.96,480.03 -205.81,0 -391.47,-130.31 -461.99,-324.14 -5.5,-15 -22.12,-22.8 -37.09,-17.3 -15.09,5.51 -22.83,22.12 -17.33,37.1 78.84,216.65 286.36,362.23 516.41,362.23 299.28,0 543.5,-240.38 549.84,-538.18l66.52 66.56c5.67,5.6 13.06,8.43 20.48,8.43 7.41,0 14.82,-2.83 20.51,-8.52 11.28,-11.3 11.28,-29.62 0,-40.91zm-1042.17 -115.72c-11.3,-11.31 -29.67,-11.31 -40.93,0l-66.21 66.22c6.45,-265.78 224.67,-479.99 491.99,-479.99 205.77,0 391.46,130.25 461.98,324.08 5.41,15.07 22.1,22.78 37.1,17.3 15.04,-5.5 22.83,-22.09 17.33,-37.11 -78.85,-216.61 -286.36,-362.15 -516.41,-362.15 -299.33,0 -543.58,240.33 -549.89,538.13l-66.52 -66.48c-11.35,-11.31 -29.67,-11.31 -40.96,0 -11.29,11.3 -11.29,29.63 0,40.93l115.81 115.79c5.66,5.59 13.08,8.47 20.5,8.47 7.4,0 14.79,-2.88 20.4,-8.47l115.81 -115.79c11.31,-11.3 11.31,-29.63 0,-40.93z"/>
 </g>
</svg>
