<?xml version="1.0" encoding="UTF-8"?>
<!DOCTYPE svg PUBLIC "-//W3C//DTD SVG 1.1//EN" "http://www.w3.org/Graphics/SVG/1.1/DTD/svg11.dtd">
<!-- Creator: CorelDRAW -->
<svg xmlns="http://www.w3.org/2000/svg" xml:space="preserve" width="31mm" height="31mm" version="1.1" style="shape-rendering:geometricPrecision; text-rendering:geometricPrecision; image-rendering:optimizeQuality; fill-rule:evenodd; clip-rule:evenodd"
viewBox="0 0 3100 3100"
 xmlns:xlink="http://www.w3.org/1999/xlink"
 xmlns:xodm="http://www.corel.com/coreldraw/odm/2003">
 <defs>
  <style type="text/css">
   <![CDATA[
    .str0 {stroke:#FEFEFE;stroke-width:59.97;stroke-linecap:round;stroke-linejoin:round;stroke-miterlimit:10}
    .fil0 {fill:none;fill-rule:nonzero}
   ]]>
  </style>
 </defs>
 <g id="Capa_x0020_1">
  <metadata id="CorelCorpID_0Corel-Layer"/>
  <g id="_1269314458448">
   <path class="fil0 str0" d="M885.32 2850.23l0 0c-713.78,-362.77 -998.3,-1235.4 -635.53,-1949.13 362.71,-713.76 1235.39,-998.34 1949.12,-635.57 713.77,362.75 998.33,1235.38 635.58,1949.11l0 0.05c-362.71,713.73 -1235.4,998.29 -1949.17,635.54z"/>
   <path class="fil0 str0" d="M1136.05 2356.86l0 0c-441.24,-224.25 -617.18,-763.77 -392.95,-1205.01 224.29,-441.3 763.82,-617.24 1205.06,-392.95 441.3,224.23 617.24,763.76 392.96,1205l0 0.05c-224.24,441.24 -763.77,617.19 -1205.07,392.91z"/>
  </g>
 </g>
</svg>
