<?xml version="1.0" encoding="UTF-8"?>
<!DOCTYPE svg PUBLIC "-//W3C//DTD SVG 1.1//EN" "http://www.w3.org/Graphics/SVG/1.1/DTD/svg11.dtd">
<!-- Creator: CorelDRAW -->
<svg xmlns="http://www.w3.org/2000/svg" xml:space="preserve" width="31mm" height="31mm" version="1.1" style="shape-rendering:geometricPrecision; text-rendering:geometricPrecision; image-rendering:optimizeQuality; fill-rule:evenodd; clip-rule:evenodd"
viewBox="0 0 3100 3100"
 xmlns:xlink="http://www.w3.org/1999/xlink"
 xmlns:xodm="http://www.corel.com/coreldraw/odm/2003">
 <defs>
  <style type="text/css">
   <![CDATA[
    .str0 {stroke:#FEFEFE;stroke-width:59.97;stroke-linecap:round;stroke-linejoin:round;stroke-miterlimit:10}
    .fil0 {fill:none;fill-rule:nonzero}
   ]]>
  </style>
 </defs>
 <g id="Capa_x0020_1">
  <metadata id="CorelCorpID_0Corel-Layer"/>
  <path class="fil0 str0" d="M2581.14 576.79l-623.31 904.37 904.9 623.35c135.97,93.68 170.31,279.94 76.58,415.96l-0.13 0.19c-93.69,135.99 -279.9,170.27 -415.87,76.63l-905 -623.15 -622.72 904.33c-93.69,136.03 -279.94,170.31 -415.97,76.67 -136.02,-93.72 -170.36,-279.97 -76.69,-416l623.36 -904.81 -904.67 -622.92c-136.06,-93.68 -170.4,-279.93 -76.67,-415.97 93.73,-136.02 279.94,-170.3 415.96,-76.62l904.04 622.77 623.5 -904.41c93.72,-135.94 279.88,-170.22 415.81,-76.58l0.24 0.13c136.07,93.73 170.4,280.03 76.64,416.06z"/>
 </g>
</svg>
