<?xml version="1.0" encoding="UTF-8"?>
<!DOCTYPE svg PUBLIC "-//W3C//DTD SVG 1.1//EN" "http://www.w3.org/Graphics/SVG/1.1/DTD/svg11.dtd">
<!-- Creator: CorelDRAW -->
<svg xmlns="http://www.w3.org/2000/svg" xml:space="preserve" width="2.1166mm" height="2.1166mm" version="1.1" style="shape-rendering:geometricPrecision; text-rendering:geometricPrecision; image-rendering:optimizeQuality; fill-rule:evenodd; clip-rule:evenodd"
viewBox="0 0 211.66 211.66"
 xmlns:xlink="http://www.w3.org/1999/xlink"
 xmlns:xodm="http://www.corel.com/coreldraw/odm/2003">
 <defs>
  <style type="text/css">
   <![CDATA[
    .fil0 {fill:#6F3993}
   ]]>
  </style>
 </defs>
 <g id="Capa_x0020_1">
  <metadata id="CorelCorpID_0Corel-Layer"/>
  <path class="fil0" d="M56.59 156.38c-1.14,-4.9 -8.7,-19.49 -11.46,-24.5 -3.18,-5.76 -11.16,-17.85 -18.66,-17.85 -11.16,0 -25.92,10.89 -30.72,18.02 4.8,1.08 11.1,5.75 14.16,9.12l3.6 4.33c4.74,6.21 8.04,12.77 11.7,20.06 6.6,13.11 10.98,25.54 16.2,38.82 0.84,2.1 1.08,4.16 1.98,5.98l12.48 -9.75c4.5,-3.3 8.4,-5.98 13.14,-9.06 1.26,-0.85 1.92,-1.31 3.12,-2.16 2.88,-2.17 4.26,-6.33 6.36,-10.61 1.38,-2.79 2.52,-4.44 3.9,-7.23 6.96,-14.14 23.64,-39.79 34.32,-54.55 9.24,-12.77 24.24,-32.89 34.26,-44.12l34.92 -37.5c6.9,-5.76 14.1,-13.17 21.54,-18.18 -0.84,-1.26 -1.8,-2.34 -2.64,-3.71 -1.02,-1.54 -1.62,-2.68 -3.18,-3.7 -2.88,0.68 -19.8,12.14 -22.14,13.85l-15.42 11.57c-6.42,4.9 -19.32,15.84 -24.72,21.31l-23.04 22.46c-1.74,1.77 -2.46,3.02 -4.26,4.79l-17.16 19.32c-2.94,3.54 -5.34,6.67 -8.28,10.26l-30 43.03z"/>
 </g>
</svg>
